<svg xmlns="http://www.w3.org/2000/svg" width="129" height="40" viewBox="0 0 129 40">
  <g fill="#FFF" fill-rule="evenodd">
    <path d="M49.1031944 15.8176111C47.7768056 15.8176111 46.5120833 15.5545556 45.3426389 15.0348333 45.2009722 14.974 45.0659722 14.9456667 44.9184722 14.9456667 44.3318056 14.9456667 43.98125 15.4320556 43.98125 15.9023333 43.98125 16.2928889 44.2470833 16.6826111 44.6098611 16.8278889 46.0593056 17.4526111 47.6298611 17.7692778 49.2773611 17.7692778 52.2818056 17.7692778 54.3801389 16.1570556 54.3801389 13.8487222 54.3801389 10.9092778 51.7965278 10.2895556 49.5170833 9.74288889 47.71875 9.3115 46.1654167 8.93872222 46.1654167 7.55205556 46.1654167 6.02872222 47.8731944 5.48622222 49.47125 5.48622222 50.5270833 5.48622222 51.5609722 5.65955556 52.5373611 5.99872222 52.6870833 6.05872222 52.8023611 6.08677778 52.9004167 6.08677778 53.4673611 6.08677778 53.8184722 5.59011111 53.8184722 5.13011111 53.8184722 4.684 53.5979167 4.36955556 53.1826389 4.22122222 52.0209722 3.79122222 50.7073611 3.57288889 49.2773611 3.57288889 45.7123611 3.57288889 44.1168056 5.63955556 44.1168056 7.68761111 44.1168056 10.4826111 46.7734722 11.1626111 49.1173611 11.7628889 50.8523611 12.2070556 52.3509722 12.5906667 52.3509722 13.7323333 52.3509722 15.1353889 51.28875 15.8176111 49.1031944 15.8176111M59.17725 15.9338333C57.9094722 15.9338333 57.2664167 15.4602222 57.2664167 14.5266111 57.2664167 13.593 58.1766944 13.1388333 60.0491944 13.1388333L62.0180833 13.1388333 62.0180833 14.5693889C61.4441944 15.208 60.3719722 15.9338333 59.17725 15.9338333M55.2178056 14.7205C55.2178056 16.7221667 56.8783611 17.7693889 58.5186389 17.7693889 59.9019722 17.7693889 61.0775278 17.3393889 62.0180833 16.4899444L62.0180833 16.6577222C62.0180833 17.2174444 62.4733611 17.6724444 63.0328056 17.6724444 63.6030833 17.6724444 64.0669722 17.2174444 64.0669722 16.6577222L64.0669722 11.1749444C64.0669722 9.20383333 62.7705833 7.21522222 59.87475 7.21522222 58.6864167 7.21522222 57.6036389 7.4405 56.4686389 7.92355556 56.09225 8.07855556 55.8764167 8.39494444 55.8764167 8.79188889 55.8764167 9.28466667 56.2541944 9.67105556 56.7361389 9.67105556 56.81225 9.67105556 56.9086389 9.65633333 57.0319722 9.62522222 57.7764167 9.38383333 58.52975 9.16716667 59.56475 9.16716667 61.2844722 9.16716667 62.0180833 9.843 62.0180833 11.4266111L59.8166944 11.4388333C56.9369722 11.4388333 55.2178056 12.6657778 55.2178056 14.7205M68.9876389 9.206L71.26625 9.206C71.7704167 9.206 72.1648611 8.81127778 72.1648611 8.30766667 72.1648611 7.80377778 71.7704167 7.40905556 71.26625 7.40905556L68.9876389 7.40905556 68.9876389 6.48627778C68.9876389 5.18544444 69.5406944 4.92405556 70.4334722 4.92405556 70.6123611 4.92405556 70.7756944 4.95433333 70.93375 4.9835 71.0845833 5.01155556 71.2404167 5.04044444 71.4018056 5.04044444 71.8598611 5.04044444 72.2618056 4.62961111 72.2618056 4.16127778 72.2618056 3.76044444 71.9793056 3.47655556 71.7370833 3.35544444 71.2104167 3.09211111 70.6054167 2.95294444 69.9876389 2.95294444 68.58125 2.95294444 66.93875 3.86322222 66.93875 6.42822222L66.93875 7.40905556 65.9384722 7.40905556C65.4345833 7.40905556 65.0401389 7.80377778 65.0401389 8.30766667 65.0401389 8.81127778 65.4345833 9.206 65.9384722 9.206L66.93875 9.206 66.93875 16.6579444C66.93875 17.2173889 67.3940278 17.6723889 67.9534722 17.6723889 68.5331944 17.6723889 68.9876389 17.2268333 68.9876389 16.6579444L68.9876389 9.206zM77.1365 8.99277778C78.3803889 8.99277778 79.6803889 9.78055556 79.8501111 11.5358333L74.4428889 11.5358333C74.6115 9.78055556 75.9023333 8.99277778 77.1365 8.99277778M77.5242778 17.7694444C79.3045556 17.7694444 80.1770556 17.3572222 80.9853889 16.8980556 81.3515 16.6891667 81.5615 16.3827778 81.5615 16.0572222 81.5615 15.5536111 81.1581667 15.1588889 80.6434444 15.1588889 80.4798333 15.1588889 80.364 15.185 80.2292778 15.2522222 79.6378889 15.5558333 78.9198333 15.8369444 77.679 15.8369444 75.8381667 15.8369444 74.6976111 14.9219444 74.4509444 13.2552778L80.8567778 13.2552778C81.4559444 13.2552778 81.8906667 12.8286111 81.8906667 12.2405556 81.8906667 9.82027778 80.4028889 7.21527778 77.1365 7.21527778 74.9345556 7.21527778 72.3631667 8.5975 72.3631667 12.4925 72.3631667 15.7966667 74.2926111 17.7694444 77.5242778 17.7694444M88.4505278 9.206L88.5474722 9.206C89.1466389 9.206 89.5816389 8.79544444 89.5816389 8.22988889 89.5816389 7.661 89.1444167 7.21516667 88.5860833 7.21516667L88.4894167 7.21516667C87.4349722 7.21516667 86.4610833 7.73794444 85.59025 8.77016667L85.59025 8.34627778C85.59025 7.78572222 85.1169167 7.31211111 84.5560833 7.31211111 83.9966389 7.31211111 83.5416389 7.776 83.5416389 8.34627778L83.5416389 16.6579444C83.5416389 17.2173889 83.9966389 17.6723889 84.5560833 17.6723889 85.1263611 17.6723889 85.59025 17.2173889 85.59025 16.6579444L85.59025 10.8121111C86.3019167 9.776 87.3158056 9.206 88.4505278 9.206M55.2448056 27.4995833L51.4281389 27.4995833C50.9025833 27.4995833 50.4909167 27.91125 50.4909167 28.4368056 50.4909167 28.9620833 50.9025833 29.3740278 51.4281389 29.3740278L54.4820278 29.3740278 54.4820278 32.6523611C53.4831389 33.1801389 52.3909167 33.4476389 51.23425 33.4476389 48.1675833 33.4476389 46.1073056 31.3870833 46.1073056 28.3206944 46.1073056 25.2059722 48.08175 23.1934722 51.1373056 23.1934722 52.47175 23.1934722 53.6203611 23.5220833 54.8709167 24.2634722 55.01925 24.3376389 55.1778611 24.3751389 55.34175 24.3751389 55.9403611 24.3751389 56.2981389 23.89875 56.2981389 23.4381944 56.2981389 23.0470833 56.06675 22.7431944 55.8445278 22.6201389 54.7406389 21.9193056 53.2950833 21.2029167 50.9436944 21.2029167 46.95425 21.2029167 44.0584167 24.19625 44.0584167 28.3206944 44.0584167 32.4881944 46.9136944 35.3990278 51.0020278 35.3990278 52.5498056 35.3990278 54.0220278 35.0395833 55.5003611 34.3006944 56.0045278 34.0593056 56.3175833 33.5495833 56.3175833 32.9701389L56.3175833 28.5723611C56.3175833 27.9709722 55.8464722 27.4995833 55.2448056 27.4995833M61.6568889 33.5633611C60.3891111 33.5633611 59.7460556 33.0903056 59.7460556 32.1569722 59.7460556 31.2228056 60.6563333 30.7689167 62.5288333 30.7689167L64.4977222 30.7689167 64.4977222 32.1991944C63.9238333 32.8378056 62.8516111 33.5633611 61.6568889 33.5633611M62.3543889 24.8453056C61.1660556 24.8453056 60.0832778 25.0705833 58.9482778 25.5536389 58.5718889 25.7086389 58.3560556 26.0250278 58.3560556 26.4219722 58.3560556 26.91475 58.7338333 27.3008611 59.2157778 27.3008611 59.2918889 27.3008611 59.3882778 27.2864167 59.5116111 27.2553056 60.2560556 27.0136389 61.0093889 26.79725 62.0443889 26.79725 63.7641111 26.79725 64.4977222 27.4728056 64.4977222 29.0566944L62.2963333 29.0689167C59.4166111 29.0689167 57.6974444 30.2955833 57.6974444 32.3505833 57.6974444 34.3519722 59.358 35.3989167 60.9982778 35.3989167 62.3818889 35.3989167 63.5574444 34.9691944 64.4977222 34.1200278L64.4977222 34.2878056C64.4977222 34.8475278 64.953 35.3028056 65.5124444 35.3028056 66.0827222 35.3028056 66.5466111 34.8475278 66.5466111 34.2878056L66.5466111 28.80475C66.5466111 26.8339167 65.2502222 24.8453056 62.3543889 24.8453056M80.5270833 24.84525C79.0006944 24.84525 77.8098611 25.4638611 76.98375 26.68525 76.5170833 25.75525 75.5256944 24.84525 73.9979167 24.84525 72.3890278 24.84525 71.4654167 25.5896944 70.8468056 26.34775L70.8468056 25.9760833C70.8468056 25.4155278 70.3731944 24.9421944 69.8129167 24.9421944 69.2534722 24.9421944 68.7981944 25.4060833 68.7981944 25.9760833L68.7981944 34.2880278C68.7981944 34.8474722 69.2534722 35.3024722 69.8129167 35.3024722 70.3829167 35.3024722 70.8468056 34.8474722 70.8468056 34.2880278L70.8468056 28.5149722C71.3470833 27.6896944 72.10125 26.7583056 73.4940278 26.7583056 74.8134722 26.7583056 75.3276389 27.40275 75.3276389 29.0569167L75.3276389 34.2880278C75.3276389 34.8474722 75.7826389 35.3024722 76.3420833 35.3024722 76.9120833 35.3024722 77.37625 34.8474722 77.37625 34.2880278L77.37625 28.5149722C77.87625 27.6896944 78.6301389 26.7583056 80.0234722 26.7583056 81.3429167 26.7583056 81.8565278 27.40275 81.8565278 29.0569167L81.8565278 34.2880278C81.8565278 34.8474722 82.3118056 35.3024722 82.87125 35.3024722 83.4415278 35.3024722 83.9051389 34.8474722 83.9051389 34.2880278L83.9051389 28.7080278C83.9051389 26.8474722 82.8479167 24.84525 80.5270833 24.84525M88.2058333 28.1434444C88.7916667 27.5106667 89.7644444 26.7776111 91.1238889 26.7776111 92.9958333 26.7776111 94.1586111 28.0592778 94.1586111 30.1223333 94.1586111 32.1853889 92.9958333 33.4667778 91.1238889 33.4667778 89.7644444 33.4667778 88.7919444 32.7337222 88.2058333 32.1012222L88.2058333 28.1434444zM91.3758333 24.8451111C90.1644444 24.8451111 89.1241667 25.2623333 88.2058333 26.1187222L88.2058333 21.714C88.2058333 21.134 87.7513889 20.6798333 87.1713889 20.6798333 86.6027778 20.6798333 86.1566667 21.134 86.1566667 21.714L86.1566667 34.2878889C86.1566667 34.8476111 86.6119444 35.3023333 87.1713889 35.3023333 87.7513889 35.3023333 88.2058333 34.8567778 88.2058333 34.2878889L88.2058333 34.1253889C89.1241667 34.9817778 90.1644444 35.3992778 91.3758333 35.3992778 94.5138889 35.3992778 96.2072222 32.6803889 96.2072222 30.1223333 96.2072222 27.5642778 94.5138889 24.8451111 91.3758333 24.8451111L91.3758333 24.8451111zM99.1056389 20.6798056C98.53675 20.6798056 98.0911944 21.1339722 98.0911944 21.7139722L98.0911944 34.2878611C98.0911944 34.8475833 98.5459167 35.3025833 99.1056389 35.3025833 99.6853611 35.3025833 100.139806 34.85675 100.139806 34.2878611L100.139806 21.7139722C100.139806 21.1339722 99.6853611 20.6798056 99.1056389 20.6798056M103.793944 20.9703333L103.677556 20.9703333C103.053944 20.9703333 102.547 21.4778333 102.547 22.1014444L102.547 22.1789444C102.547 22.8025556 103.053944 23.3097778 103.677556 23.3097778L103.793944 23.3097778C104.417556 23.3097778 104.924778 22.8025556 104.924778 22.1789444L104.924778 22.1014444C104.924778 21.4778333 104.417556 20.9703333 103.793944 20.9703333M103.716361 24.9420833C103.147472 24.9420833 102.701917 25.39625 102.701917 25.97625L102.701917 34.2879167C102.701917 34.8476389 103.156639 35.3026389 103.716361 35.3026389 104.296083 35.3026389 104.750528 34.8568056 104.750528 34.2879167L104.750528 25.97625C104.750528 25.39625 104.296083 24.9420833 103.716361 24.9420833M112.666833 24.84525C111.044056 24.84525 110.001 25.5988611 109.206278 26.4110833L109.206278 25.9760833C109.206278 25.4060833 108.742111 24.9421944 108.171833 24.9421944 107.603222 24.9421944 107.157389 25.3963611 107.157389 25.9760833L107.157389 34.2880278C107.157389 34.8474722 107.612389 35.3024722 108.171833 35.3024722 108.742111 35.3024722 109.206278 34.8474722 109.206278 34.2880278L109.206278 28.5258056C110.181556 27.32025 111.146556 26.7583056 112.240722 26.7583056 113.5785 26.7583056 114.229056 27.4846944 114.229056 28.9791389L114.229056 34.2880278C114.229056 34.8474722 114.684056 35.3024722 115.2435 35.3024722 115.813778 35.3024722 116.277667 34.8474722 116.277667 34.2880278L116.277667 28.7855278C116.277667 26.4655278 114.792944 24.84525 112.666833 24.84525M123.109 33.3119167C121.135944 33.3119167 119.958167 32.0833056 119.958167 30.0255278 119.958167 27.96775 121.135944 26.7388611 123.109 26.7388611 124.394556 26.7388611 125.247333 27.4138611 125.910944 28.0880278L125.910944 31.9630278C125.247611 32.6369167 124.395111 33.3119167 123.109 33.3119167M126.925667 24.9421944C126.366222 24.9421944 125.910944 25.4060833 125.910944 25.9760833L125.910944 26.1138611C125.020389 25.2716389 123.955667 24.84525 122.740944 24.84525 121.555111 24.84525 120.371778 25.3083056 119.493444 26.1155278 118.770944 26.78025 117.909556 27.99775 117.909556 30.0255278 117.909556 32.0530278 118.770944 33.2708056 119.493444 33.9349722 120.371778 34.7424722 121.555111 35.20525 122.740944 35.20525 123.955944 35.20525 125.020944 34.7788611 125.910944 33.9369167L125.910944 34.8885833C125.910944 36.9174722 124.988167 37.9038611 123.089833 37.9038611 121.967889 37.9038611 120.913722 37.6610833 119.946222 37.1780278 119.844833 37.1371944 119.707333 37.0899722 119.544278 37.0899722 119.003444 37.0899722 118.626222 37.5838611 118.626222 38.0271944 118.626222 38.3921944 118.767056 38.6616389 119.046778 38.8291389 119.907611 39.3235833 121.594556 39.8558056 123.264278 39.8558056 126.248444 39.8558056 127.960111 37.9533056 127.960111 34.6369167L127.960111 25.9760833C127.960111 25.4155278 127.4865 24.9421944 126.925667 24.9421944M30.5206944 10.8768611C29.3029167 12.0946389 27.3290278 12.0946389 26.1109722 10.8768611 24.89375 9.65936111 24.89375 7.68519444 26.11125 6.46741667 27.3290278 5.24991667 29.3029167 5.24991667 30.5206944 6.46741667 31.7381944 7.68519444 31.7381944 9.65936111 30.5206944 10.8768611M33.2545833 3.73352778C28.3929167-1.12841667 20.4798611-1.12841667 15.6168056 3.73463889 12.1570833 7.19436111 11.1618056 12.1988056 12.6265278 16.5493611 13.2181944 18.3079722 14.2098611 19.9599167 15.6054167 21.3585278L15.6173611 21.37075 15.6165278 21.3715833C16.2251389 21.9799167 17.2123611 21.9799167 17.82125 21.37075 18.4298611 20.7621389 18.4298611 19.7754722 17.82125 19.1665833L17.8215278 19.1660278C14.1751389 15.5193611 14.1751389 9.58547222 17.8215278 5.93908333 19.8548611 3.90547222 22.5990278 3.00713889 25.2615278 3.24075 24.7770833 3.51352778 24.31875 3.85019444 23.90625 4.26241667 21.47125 6.69797222 21.47125 10.6463056 23.90625 13.0815833 26.3418056 15.5165833 30.2898611 15.5165833 32.7254167 13.0815833 33.1340278 12.67325 33.4676389 12.2193611 33.7390278 11.7399167 33.7509722 11.8796389 33.7601389 12.0196389 33.7659722 12.1599167 33.8709722 14.6846389 32.97375 17.24325 31.0504167 19.1665833 31.0331944 19.1835278 31.01375 19.19825 30.9968056 19.2151944 30.80625 19.4015833 30.61125 19.5790833 30.4093056 19.74575 30.2781944 19.8549167 30.14125 19.9526944 30.0054167 20.0535278 29.9240278 20.1140833 29.8431944 20.1768611 29.7604167 20.2338056 29.5784722 20.3601944 29.3920833 20.4760278 29.2043056 20.5871389 29.1734722 20.60575 29.1429167 20.6243611 29.1115278 20.6424167 28.6131944 20.9304722 28.09375 21.1668611 27.5618056 21.3549167 27.3551389 21.43075 27.1598611 21.5476944 26.9940278 21.7135278 26.3820833 22.3254722 26.38125 23.3165833 26.9931944 23.9288056 27.4129167 24.34825 28.0109722 24.4771389 28.5426389 24.32075 29.3104167 24.0551944 30.0576389 23.7165833 30.7704167 23.2963056 31.6573611 22.7738056 32.49375 22.1321389 33.2540278 21.3715833 38.1170833 16.5088056 38.1170833 8.59575 33.2545833 3.73352778"/>
    <path d="M6.53305556,26.0458611 C7.75055556,24.8283611 9.72472222,24.8283611 10.9422222,26.0458611 C12.16,27.2633611 12.16,29.2380833 10.9422222,30.4555833 C9.72472222,31.6728056 7.75055556,31.6728056 6.53277778,30.4555833 C5.31527778,29.2380833 5.31527778,27.2633611 6.53305556,26.0458611 M24.4280556,20.3739167 C23.8361111,18.6153056 22.8438889,16.9639167 21.4480556,15.5639167 L21.4419444,15.5580833 C21.44,15.5558611 21.4380556,15.5541944 21.4361111,15.55225 C20.8280556,14.9441944 19.8408333,14.9433611 19.2319444,15.55225 C18.6230556,16.1611389 18.6233333,17.1483611 19.2311111,17.7564167 C22.8783333,21.4033611 22.8783333,27.33725 19.2319444,30.9839167 C17.1986111,33.0169722 14.4547222,33.9153056 11.7922222,33.6814167 C12.2766667,33.4086389 12.7347222,33.0719722 13.1472222,32.65975 C15.5822222,30.22475 15.5822222,26.2764167 13.1472222,23.8411389 C10.7116667,21.4058611 6.76361111,21.4058611 4.32833333,23.8411389 C3.91555556,24.2539167 3.57861111,24.7128056 3.30555556,25.1978056 C3.07083333,22.5350278 3.96972222,19.7903056 6.00388889,17.7569722 C6.02,17.7400278 6.03777778,17.7275278 6.05388889,17.7114167 C6.24444444,17.5244722 6.44,17.3475278 6.64194444,17.1805833 C6.77333333,17.0711389 6.90972222,16.9736389 7.04527778,16.87225 C7.12722222,16.8119722 7.20805556,16.7491944 7.29083333,16.69225 C7.4725,16.5664167 7.65861111,16.4503056 7.84666667,16.3391944 C7.87777778,16.3200278 7.90805556,16.3019722 7.93944444,16.2839167 C8.43777778,15.9961389 8.95666667,15.7591944 9.48888889,15.5708611 C9.69555556,15.4950278 9.89083333,15.3786389 10.0575,15.21225 C10.6691667,14.6005833 10.6691667,13.6091944 10.0572222,12.99725 C9.6375,12.57725 9.04,12.4489167 8.50805556,12.6044722 C7.74083333,12.86975 6.99333333,13.2089167 6.28027778,13.6291944 C5.39416667,14.1519722 4.55833333,14.7928056 3.79833333,15.5530833 C3.79888889,15.5528056 3.79888889,15.55225 3.8,15.5514167 L3.7975,15.5539167 C-1.06305556,20.4169722 -1.06222222,28.3278056 3.79888889,33.1886389 C8.66138889,38.0519722 16.5744444,38.0519722 21.4372222,33.1886389 C24.8972222,29.7289167 25.8925,24.72475 24.4280556,20.3739167"/>
  </g>
</svg>
